HIERARCHY
ROOT ui
{
	 OFFSET 0 0 0
	 CHANNELS 3 XPosition YPosition Z Position
	 EndSite
	 {
	 OFFSET 0 -1 0
	 }
}
ROOT li
{
	 OFFSET 0 0 0
	 CHANNELS 3 XPosition YPosition Z Position
	 EndSite
	 {
	 OFFSET 0 -1 0
	 }
}
ROOT ul
{
	 OFFSET 0 0 0
	 CHANNELS 3 XPosition YPosition Z Position
	 EndSite
	 {
	 OFFSET 0 -1 0
	 }
}
ROOT ll
{
	 OFFSET 0 0 0
	 CHANNELS 3 XPosition YPosition Z Position
	 EndSite
	 {
	 OFFSET 0 -1 0
	 }
}
ROOT tt
{
	 OFFSET 0 0 0
	 CHANNELS 3 XPosition YPosition Z Position
	 EndSite
	 {
	 OFFSET 0 -1 0
	 }
}
ROOT tb
{
	 OFFSET 0 0 0
	 CHANNELS 3 XPosition YPosition Z Position
	 EndSite
	 {
	 OFFSET 0 -1 0
	 }
}
ROOT td
{
	 OFFSET 0 0 0
	 CHANNELS 3 XPosition YPosition Z Position
	 EndSite
	 {
	 OFFSET 0 -1 0
	 }
}
ROOT v
{
	 OFFSET 0 0 0
	 CHANNELS 3 XPosition YPosition Z Position
	 EndSite
	 {
	 OFFSET 0 -1 0
	 }
}
ROOT bn
{
	 OFFSET 0 0 0
	 CHANNELS 3 XPosition YPosition Z Position
	 EndSite
	 {
	 OFFSET 0 -1 0
	 }
}
MOTION
Frames: 32
Frame Time: 0.002
0.002338336944580078	7.668480277061463E-4	0		0.42579873657226563	-2.3662392578125	0		-1.1659599609375	0.10581427764892579	0		-0.8015933227539063	-2.599182861328125	0		1.5253792724609374	-0.6217501220703125	0		3.16143701171875	0.08891453552246094	0		4.61782958984375	0.20871759033203124	0		5.627265625	0.20641128540039064	0		-0.3684248962402344	5.96140673828125	0		
0.00561384916305542	0.0036401929855346678	0		0.4093843688964844	-2.344205322265625	0		-1.16569287109375	0.10625847625732422	0		-0.8452716674804688	-2.5851083984375	0		1.5604669189453124	-0.6151390991210938	0		3.144326171875	0.12177723693847656	0		4.6312314453125	0.21137147521972657	0		5.62963525390625	0.215825439453125	0		-0.2493380584716797	5.97335693359375	0		
9.541580080986023E-4	0.008675106048583984	0		0.428416748046875	-2.35481494140625	0		-1.1063004150390625	0.11159413146972656	0		-0.8152891845703125	-2.592380859375	0		1.555311767578125	-0.6227776489257812	0		3.129058837890625	0.09064318084716796	0		4.61949267578125	0.20553001403808593	0		5.616310546875	0.2225773010253906	0		-0.24747975158691407	5.974427734375	0		
-0.004068291187286377	-0.006267743110656738	0		0.4027452697753906	-2.3515556640625	0		-1.1819571533203126	0.11448706817626954	0		-0.8541165161132812	-2.591343994140625	0		1.5553104248046874	-0.6234774780273438	0		3.131706298828125	0.10723543548583984	0		4.62395703125	0.20945523071289063	0		5.62059716796875	0.19925131225585938	0		-0.25791839599609373	5.9627431640625	0		
-0.005615930080413819	0.0027443020343780517	0		0.41088482666015624	-2.360922607421875	0		-1.137760009765625	0.10807560729980469	0		-0.81894189453125	-2.59373193359375	0		1.5222412109375	-0.6284873657226563	0		3.1627646484375	0.09232328796386718	0		4.62504296875	0.19352622985839843	0		5.62490234375	0.17781967163085938	0		-0.24099676513671875	5.97354248046875	0		
-4.2811301350593567E-4	-0.002365895986557007	0		0.39617739868164065	-2.36481298828125	0		-1.1713424072265626	0.11318756103515625	0		-0.8417180786132813	-2.5959833984375	0		1.52536474609375	-0.6251532592773438	0		3.147533935546875	0.1133975830078125	0		4.62366796875	0.20475236511230469	0		5.62802783203125	0.18605702209472658	0		-0.23838563537597657	5.97362255859375	0		
0.006988663196563721	0.003491225004196167	0		0.4397174987792969	-2.359858642578125	0		-1.095040771484375	0.1110648422241211	0		-0.8511699829101562	-2.585490234375	0		1.5195755615234374	-0.6185914306640625	0		3.152522705078125	0.09514260864257812	0		4.6250595703125	0.20403254699707032	0		5.6240908203125	0.20178724670410156	0		-0.2358921661376953	5.97371142578125	0		
0.0023964240550994873	0.00860741901397705	0		0.4003583374023437	-2.3521845703125	0		-1.17474609375	0.11012382507324218	0		-0.8209133911132812	-2.592823974609375	0		1.552468994140625	-0.6287850952148437	0		3.157168212890625	0.10898345947265625	0		4.62543115234375	0.20245152282714843	0		5.6242802734375	0.19852243041992187	0		-0.23352848815917968	5.97380810546875	0		
-0.0026137590408325194	-0.006255373954772949	0		0.45855294799804686	-2.369527587890625	0		-1.09844580078125	0.10792519378662109	0		-0.823465576171875	-2.59348828125	0		1.5525693359375	-0.6292556762695313	0		3.159230712890625	0.09495703125	0		4.625798828125	0.200991943359375	0		5.6203447265625	0.21301910400390625	0		-0.2313031005859375	5.973912109375	0		
7.695800065994263E-4	-0.002278898000717163	0		0.40830792236328123	-2.361553466796875	0		-1.174074462890625	0.11092200469970703	0		-0.7900323486328125	-2.597929443359375	0		1.5554454345703126	-0.6407395629882813	0		3.124738525390625	0.10280389404296875	0		4.6161611328125	0.19986753845214844	0		5.6287734375	0.17348219299316406	0		-0.2282429504394531	5.97300048828125	0		
0.0010621919631958008	-0.002227524995803833	0		0.4198188781738281	-2.367873046875	0		-1.1627750244140624	0.11005785369873047	0		-0.8772808837890625	-2.58877392578125	0		1.5258516845703125	-0.627467529296875	0		3.173679443359375	0.08393698120117188	0		4.6254853515625	0.19745497131347656	0		5.62184423828125	0.1730518798828125	0		-0.3577759399414063	5.952962890625	0		
0.011560637474060059	0.00761177396774292	0		0.4225911560058594	-2.363984130859375	0		-1.1244964599609375	0.10857832336425781	0		-0.7738739624023437	-2.5997724609375	0		1.564922119140625	-0.630646240234375	0		3.15846923828125	0.10554478454589844	0		4.62581640625	0.19635096740722657	0		5.62913818359375	0.16864749145507812	0		-0.22456455993652344	5.9712333984375	0		
-0.0014797459840774536	-0.006028234004974365	0		0.4234915771484375	-2.3560341796875	0		-1.1351591796875	0.11115050506591796	0		-0.8579623413085937	-2.5876630859375	0		1.558888916015625	-0.6377994384765625	0		3.1263671875	0.08760567474365234	0		4.62714892578125	0.19633863830566406	0		5.6221923828125	0.1686940155029297	0		-0.22288572692871095	5.97335498046875	0		
-0.04404806900024414	0.0030120820999145507	0		0.40507260131835937	-2.3636376953125	0		-1.1348931884765625	0.11146451568603516	0		-0.7914505004882812	-2.596904541015625	0		1.5559111328125	-0.6419744873046875	0		3.145735595703125	0.09161145782470703	0		4.623298828125	0.1895517120361328	0		5.6223798828125	0.17031854248046874	0		-0.2214070587158203	5.97347998046875	0		
-0.0010217529535293578	-0.005861758232116699	0		0.414647216796875	-2.37284912109375	0		-1.1726455078125	0.11261895751953124	0		-0.8507885131835937	-2.59933837890625	0		1.5180645751953126	-0.6393179931640625	0		3.165806640625	0.08366691589355468	0		4.63250390625	0.18658106994628906	0		5.622486328125	0.16524739074707032	0		-0.22106257629394532	5.9746298828125	0		
0.006326854228973389	0.0010711899995803833	0		0.41856396484375	-2.36791552734375	0		-1.16146044921875	0.11165464019775391	0		-0.813008544921875	-2.598969970703125	0		1.5202425537109374	-0.63551904296875	0		3.1415419921875	0.106805419921875	0		4.632044921875	0.1999362487792969	0		5.62972314453125	0.16172764587402344	0		-0.2189616394042969	5.97173779296875	0		
0.004680641174316406	0.009214464187622071	0		0.4106488952636719	-2.356694580078125	0		-1.1612744140625	0.11192137908935547	0		-0.854856201171875	-2.5827958984375	0		1.5233895263671875	-0.63270556640625	0		3.1362021484375	0.08357673645019531	0		4.63224365234375	0.19937380981445313	0		5.62573291015625	0.17979734802246095	0		-0.21789112854003906	5.973869140625	0		
0.002579938888549805	-0.0016305559873580932	0		0.41618438720703127	-2.370773193359375	0		-1.134093994140625	0.11255023956298828	0		-0.7923177490234375	-2.596029541015625	0		1.5562462158203125	-0.642544189453125	0		3.174790283203125	0.10141614532470702	0		4.6282822265625	0.19300103759765624	0		5.62926416015625	0.16476637268066407	0		-0.2170014343261719	5.9740029296875	0		
-0.005261738777160644	-3.347969949245453E-4	0		0.4062784118652344	-2.361476806640625	0		-1.16505615234375	0.10849898529052734	0		-0.8623239135742188	-2.58921826171875	0		1.5532431640625	-0.6455266723632812	0		3.13169140625	0.0911896209716797	0		4.628435546875	0.19262454223632813	0		5.62293212890625	0.16431243896484374	0		-0.23146554565429686	5.964486328125	0		
-2.6172301173210146E-4	-0.005334499835968017	0		0.413929931640625	-2.372580810546875	0		-1.126962646484375	0.10683502197265625	0		-0.7935929565429688	-2.596626708984375	0		1.518428955078125	-0.6397387084960937	0		3.15283447265625	0.09154010772705078	0		4.6333828125	0.18421649169921875	0		5.63008935546875	0.15807879638671876	0		-0.21559353637695314	5.9742705078125	0		
0.014953365325927734	-5.687119960784912E-4	0		0.4277645263671875	-2.3768193359375	0		-1.1607261962890625	0.11282268524169922	0		-0.846593505859375	-2.592220458984375	0		1.520578369140625	-0.635780029296875	0		3.16068603515625	0.08024496459960938	0		4.6324765625	0.1830209503173828	0		5.63015625	0.15758871459960938	0		-0.2131516571044922	5.97035693359375	0		
0.010161156654357911	0.004662789821624756	0		0.43611181640625	-2.359918212890625	0		-1.084673828125	0.11023384094238281	0		-0.7757656860351563	-2.5977099609375	0		1.5626434326171874	-0.6357306518554687	0		3.1602939453125	0.10219727325439452	0		4.63606591796875	0.20379542541503906	0		5.6324873046875	0.17095616149902343	0		-0.21369425964355468	5.97150927734375	0		
0.01023656940460205	0.004779461860656738	0		0.4060444641113281	-2.361118408203125	0		-1.13353369140625	0.11354354858398437	0		-0.7927536010742188	-2.595161865234375	0		1.5534593505859375	-0.6454692993164063	0		3.132100830078125	0.09083283233642578	0		4.62887158203125	0.19187507629394532	0		5.62318359375	0.16261558532714843	0		-0.21433218383789063	5.9726591796875	0		
6.222400069236756E-5	-0.004868270874023438	0		0.439712646484375	-2.374807861328125	0		-1.095507080078125	0.11180622100830079	0		-0.7938023681640625	-2.5959970703125	0		1.55349560546875	-0.6454028930664063	0		3.15317822265625	0.09135731506347657	0		4.6289345703125	0.19184379577636718	0		5.62733349609375	0.14497479248046874	0		-0.2140855712890625	5.97278173828125	0		
9.493900090456008E-5	-0.004755521774291992	0		0.38782769775390624	-2.3684873046875	0		-1.1645467529296876	0.10955916595458984	0		-0.828743408203125	-2.592048828125	0		1.55351513671875	-0.6453223266601562	0		3.1430517578125	0.0846409683227539	0		4.63378271484375	0.18374577331542968	0		5.6273544921875	0.14497225952148438	0		-0.21392910766601564	5.97289892578125	0		
9.726700186729431E-5	-0.0046470828056335445	0		0.4157732543945313	-2.3700390625	0		-1.160450439453125	0.11358539581298828	0		-0.8498571166992187	-2.595438232421875	0		1.5186373291015625	-0.6394118041992187	0		3.17153955078125	0.10505329132080078	0		4.6369267578125	0.18973196411132812	0		5.63032470703125	0.15700076293945311	0		-0.21386190795898438	5.97300927734375	0		
0.010294075012207032	0.005219522953033447	0		0.41780294799804685	-2.36698388671875	0		-1.160485107421875	0.11369170379638673	0		-0.824740478515625	-2.58892041015625	0		1.556543701171875	-0.6422015380859375	0		3.14111474609375	0.08885788726806641	0		4.6330810546875	0.1979170379638672	0		5.6302998046875	0.1571591796875	0		-0.213883544921875	5.97311376953125	0		
0.0030758469104766846	-5.155659914016724E-4	0		0.43182577514648435	-2.3632119140625	0		-1.126691650390625	0.10798939514160157	0		-0.8607496337890626	-2.585982666015625	0		1.5154554443359376	-0.6421331176757813	0		3.189326171875	0.10084513854980469	0		4.63300048828125	0.19804052734375	0		5.6261484375	0.17664889526367186	0		-0.21399441528320312	5.9732119140625	0		
-0.05011194610595703	-0.0021786661148071288	0		0.4037286682128906	-2.362456298828125	0		-1.1336824951171875	0.11423334503173828	0		-0.7940576171875	-2.59546484375	0		1.5532734375	-0.6449105224609375	0		3.13797265625	0.09217389678955078	0		4.63667724609375	0.19009715270996094	0		5.62537548828125	0.1804223175048828	0		-0.2141485900878906	5.97530322265625	0		
-3.3928799629211426E-4	-0.004259360790252686	0		0.4133644104003906	-2.371591064453125	0		-1.1649832763671875	0.11003153991699219	0		-0.8630452270507812	-2.587774658203125	0		1.515151123046875	-0.641905517578125	0		3.15277685546875	0.09196534729003907	0		4.63648388671875	0.19026470947265625	0		5.630015625	0.15797024536132812	0		-0.21448541259765624	5.973390625	0		
-0.04338943481445313	0.0048300900459289555	0		0.41521066284179686	-2.369543701171875	0		-1.1611422119140624	0.11399886322021484	0		-0.8144412231445313	-2.59685009765625	0		1.5238427734375	-0.6449977416992188	0		3.155431396484375	0.08804765319824219	0		4.632068359375	0.18354225158691406	0		5.62983984375	0.15831692504882813	0		-0.212905517578125	5.97142578125	0		
0.014221681594848632	5.575330257415772E-4	0		0.4190794677734375	-2.364546142578125	0		-1.1193890380859375	0.11607207489013673	0		-0.8455108032226563	-2.589064453125	0		1.5176968994140625	-0.6387406005859375	0		3.154640625	0.11022210693359374	0		4.6300888671875	0.19777711486816407	0		5.63189892578125	0.17240023803710938	0		-0.21432566833496094	5.97252685546875	0		
